<svg id="visual" viewBox="0 0 900 600" width="900" height="600" xmlns="http://www.w3.org/2000/svg" xmlns:xlink="http://www.w3.org/1999/xlink" version="1.1"><rect x="0" y="0" width="900" height="600" fill="#ffffff"></rect><path d="M0 367L21.5 367.8C43 368.7 86 370.3 128.8 376.7C171.7 383 214.3 394 257.2 391.3C300 388.7 343 372.3 385.8 363.3C428.7 354.3 471.3 352.7 514.2 367.7C557 382.7 600 414.3 642.8 417.2C685.7 420 728.3 394 771.2 382.2C814 370.3 857 372.7 878.5 373.8L900 375L900 601L878.5 601C857 601 814 601 771.2 601C728.3 601 685.7 601 642.8 601C600 601 557 601 514.2 601C471.3 601 428.7 601 385.8 601C343 601 300 601 257.2 601C214.3 601 171.7 601 128.8 601C86 601 43 601 21.5 601L0 601Z" fill="#ff6e6c"></path><path d="M0 438L21.5 444.2C43 450.3 86 462.7 128.8 469.5C171.7 476.3 214.3 477.7 257.2 470.7C300 463.7 343 448.3 385.8 434.3C428.7 420.3 471.3 407.7 514.2 401.5C557 395.3 600 395.7 642.8 397.8C685.7 400 728.3 404 771.2 407.5C814 411 857 414 878.5 415.5L900 417L900 601L878.5 601C857 601 814 601 771.2 601C728.3 601 685.7 601 642.8 601C600 601 557 601 514.2 601C471.3 601 428.7 601 385.8 601C343 601 300 601 257.2 601C214.3 601 171.7 601 128.8 601C86 601 43 601 21.5 601L0 601Z" fill="#ff958f"></path><path d="M0 456L21.5 458.8C43 461.7 86 467.3 128.8 467.3C171.7 467.3 214.3 461.7 257.2 461.3C300 461 343 466 385.8 463.8C428.7 461.7 471.3 452.3 514.2 453.2C557 454 600 465 642.8 470.5C685.7 476 728.3 476 771.2 470.3C814 464.7 857 453.3 878.5 447.7L900 442L900 601L878.5 601C857 601 814 601 771.2 601C728.3 601 685.7 601 642.8 601C600 601 557 601 514.2 601C471.3 601 428.7 601 385.8 601C343 601 300 601 257.2 601C214.3 601 171.7 601 128.8 601C86 601 43 601 21.5 601L0 601Z" fill="#ffb9b3"></path><path d="M0 537L21.5 533.7C43 530.3 86 523.7 128.8 522C171.7 520.3 214.3 523.7 257.2 519.3C300 515 343 503 385.8 497.2C428.7 491.3 471.3 491.7 514.2 491.2C557 490.7 600 489.3 642.8 494C685.7 498.7 728.3 509.3 771.2 509.5C814 509.7 857 499.3 878.5 494.2L900 489L900 601L878.5 601C857 601 814 601 771.2 601C728.3 601 685.7 601 642.8 601C600 601 557 601 514.2 601C471.3 601 428.7 601 385.8 601C343 601 300 601 257.2 601C214.3 601 171.7 601 128.8 601C86 601 43 601 21.5 601L0 601Z" fill="#ffdcd8"></path><path d="M0 547L21.5 547C43 547 86 547 128.8 543.3C171.7 539.7 214.3 532.3 257.2 533.3C300 534.3 343 543.7 385.8 545C428.7 546.3 471.3 539.7 514.2 537C557 534.3 600 535.7 642.8 538.8C685.7 542 728.3 547 771.2 545.3C814 543.7 857 535.3 878.5 531.2L900 527L900 601L878.5 601C857 601 814 601 771.2 601C728.3 601 685.7 601 642.8 601C600 601 557 601 514.2 601C471.3 601 428.7 601 385.8 601C343 601 300 601 257.2 601C214.3 601 171.7 601 128.8 601C86 601 43 601 21.5 601L0 601Z" fill="#ffffff"></path></svg>